<?xml version="1.0" encoding="UTF-8"?>
<svg id="a" data-name="Layer 1" xmlns="http://www.w3.org/2000/svg" xmlns:xlink="http://www.w3.org/1999/xlink" viewBox="0 0 512 512">
  <defs>
    <clipPath id="b">
      <circle cx="256" cy="256.01" r="213.82" style="fill: none;"/>
    </clipPath>
  </defs>
  <circle cx="256" cy="256" r="256" style="fill: #1e293b;"/>
  <g>
    <path d="m256,42.18c118.09,0,213.82,95.73,213.82,213.82s-95.73,213.82-213.82,213.82S42.18,374.09,42.18,256,137.91,42.18,256,42.18m0-24.48c-63.65,0-123.49,24.79-168.5,69.8-45.01,45.01-69.8,104.85-69.8,168.5s24.79,123.49,69.8,168.5c45.01,45.01,104.85,69.8,168.5,69.8s123.49-24.79,168.5-69.8c45.01-45.01,69.8-104.85,69.8-168.5s-24.79-123.49-69.8-168.5c-45.01-45.01-104.85-69.8-168.5-69.8h0Z" style="fill: #b5cdf5;"/>
    <g style="clip-path: url(#b);">
      <path d="m422.78,513.37c-4.98,0-9.03-4.05-9.03-9.03v-21.78c0-.26,0-.87,0-.87,0-.15-.26-3.94-12.4-16.96-8.16-8.75-19.01-18.93-29.51-28.78-13.77-12.92-25.93-24.31-32.67-32.82-1.83,1.9-4.26,4.32-7.53,7.52-1.53,1.5-3.59,3.52-3.98,3.97l-.25.27c-1.7,1.7-2.45,5.76-2.49,7.57-.03,16.29-.03,39.38.05,54.07l.03,6.16h-1.48c-2.4,5.12-7.5,8.48-13.29,8.48h-5.85s-53.98-.01-53.98-.01v.05l-3.92-.05c-5-.07-8.91-4.04-8.89-9.04.02-5.01,3.94-8.97,8.93-9.01h60.38c-.06-15.01-.09-36.89-.04-50.84.02-2.09.46-12.83,7.71-20.08l.21-.21c5.7-5.61,12.31-12.18,13.76-13.82l.13-.14.21-.21c.62-.73,1.33-3.96,1.23-6.28l-.25-6.28h.23c-.02-10.97-.02-35.98,0-71.65,0-10.19,0-17.55,0-17.92-.02-.72-.38-3.06-1.7-4.38-1.98-1.98-3.83-3.83-5.63-5.64-.33.43-.69.84-1.08,1.23-.52.56-2.26,2.3-9.41,9.42l-.65.65c-3.33,3.32-7.1,7.08-7.63,7.63-1.01,1.1-4.68,4.64-10.27,4.64h-37.8c-.1,0-.2,0-.3,0v80.55c0,4.98-4.05,9.02-9.03,9.02-.14,0-.28,0-.42-.01-4.82-.21-8.61-4.21-8.61-9.11v-67.48l-119.67,119.76c-1.71,1.71-3.97,2.65-6.38,2.65s-4.67-.94-6.38-2.64c-3.52-3.52-3.52-9.24,0-12.76l132.44-132.55v-12.55c0-.36.02-.62.05-.92l.02-.17.04-.27c.41-2.18,1.02-3.98,1.89-5.56-1.84-1.75-1.94-4-1.98-5.11-.02-.58-.04-1.39-.04-2.46,0-1.83.01-4.09.03-6.08.01-1.01.02-2.87.02-2.87l-.02-.83v-1.84c-3.49.18-7.66.26-12.67.26-5.33,0-10.83-.1-15.25-.18-3.77-.07-6.94-.13-9.44-.13-1.6,0-2.79.03-3.53.08l-.34.02-.61-.02c-1.56,0-2.88.53-3.91,1.58-.93.94-1.52,2.24-1.5,3.32v.16s0,.25,0,.25c-.17,2.55-.07,5.86.05,9.36.38,11.86.86,26.6-8.02,33.9l-62.93,62.91c-1.74,1.73-3.98,2.67-6.31,2.67-3.62,0-7-2.3-8.42-5.73-1.38-3.32-.6-7.13,1.97-9.71l2.82-2.82h0c3.41-3.41,10.68-10.68,26.35-26.34l34.08-34.07c.74-.76,2.37-2.98,2.37-4.65v-25.34c-.15-1.43.06-3.16.68-5.47h-10.08c-7.69,0-12.23,0-13.54.01h-.5c-2.89,0-5.75,2.27-6.61,3.14l-.15.15s-5.91,5.89-5.91,5.89c-85.17,84.87-99.14,98.79-101.85,101.46l-.41.41c-.75.76-2.8,2.74-5.61,4.73-5.13,3.63-10.17,5.47-14.99,5.47-5.09-.07-9-4.04-8.98-9.04.02-5.02,3.94-8.97,8.94-9.01.6,0,2.2-.45,4.6-2.15,1.68-1.19,2.89-2.37,3.16-2.65l.06-.07.17-.17c.77-.74,19.49-19.4,39.3-39.15l2.52-2.51c24.55-24.47,46.07-45.92,57.84-57.62-5.1-1.38-9.44-3.85-12.62-7.25-2.26-1.98-4.4-4.28-6.65-6.7-4.39-4.73-9.37-10.08-13.11-10.08-1.61,0-3.48,1.14-5.55,3.39l-.14.15L10.68,298.6c-.53.56-2.71,2.76-5.79,5.01-5.26,3.84-10.4,5.78-15.27,5.78-5.09-.07-9-4.04-8.98-9.05.02-5.03,3.96-8.98,8.95-9,1.55,0,5.62-2.66,8.07-5.26l.58-.62.09-.06c2.7-2.69,15.52-15.51,29.06-29.05l41.7-41.68c.34-.34.59-.59.79-.78,5.48-5.93,11.87-8.93,19.02-8.93,1.37.01,2.68.14,3.94.36l-24.99-24.99c-3.76-3.76-5.09-3.76-10.07-3.76h-.21c-4.87,0-6.69,0-10.21,3.51l-57.26,57.28c-3.36,3.99-13.44,11.06-20.5,11.06-.44,0-.88-.03-1.3-.08-4.77-.28-8.48-4.2-8.48-9.01s4.05-9.03,9.02-9.03h.37c.48-.17,1.64-.65,3.6-1.93,1.36-.89,2.34-1.67,2.87-2.11,0,0,54.14-54.17,58.91-58.95,8.81-8.8,16.99-8.8,22.97-8.8,6.58,0,13.99,0,23.03,9.05l58.56,58.56c.24.21.49.45.78.73,1.16,1.13,2.91,2.82,6.53,3.19,5.11,0,91.31-.02,91.58-.02,6.42,0,6.7-.28,11.38-4.96,1.62-1.6,4.74-4.73,7.75-7.75,0,0,2.57-2.58,3.66-3.67l-3.49-3.5c-31.24-31.32-96.23-96.48-144.21-144.64-1.7-1.7-2.63-3.97-2.63-6.38,0-2.41.95-4.68,2.65-6.38,1.7-1.7,3.96-2.63,6.37-2.63s4.68.94,6.39,2.65c69.76,69.94,116.32,116.61,147.72,148.09l8.23-8.24-8.31-8.19c-1.72-1.69-2.67-3.95-2.69-6.36-.02-2.41.91-4.68,2.6-6.4,1.71-1.73,3.99-2.69,6.43-2.69s4.64.92,6.34,2.6l8.38,8.27,6.22-6.23c.21-.35.41-1.12.46-1.61-.04-2.22,0-6.48.02-10.59l3.87-.1-3.86-.03c.03-3.86.05-7.51.02-9.22-.03-.43-.51-1.28-.86-1.68l-20.04-20.08c-.07-.02-.34-.09-.58-.12h-20.95c-4.98,0-9.03-4.05-9.03-9.03s4.05-9.03,9.03-9.03h3.39l-60.28-60.4c-2.62-2.72-3.34-6.44-1.92-9.76,1.43-3.36,4.81-5.61,8.42-5.61,2.33,0,4.55.92,6.27,2.6l93.88,94.07V28.26c0-4.98,4.05-9.03,9.03-9.03s9.03,4.05,9.03,9.03v164.03c9.74-10.04,30.1-30.41,43.13-43.44,0,0,6.18-6.19,8.04-8.05v-46.85l-.19-.06.09-3.01.11-1.74c.05-.75-.15-1.07-.37-1.31-.4-.42-1.11-.73-1.7-.73h-6.15s-15.51,0-15.51,0c-1.12,0-2,0-2,0-2.53,0-4.91-1.02-6.61-2.79-1.72-1.81-2.6-4.17-2.48-6.66.23-4.82,4.22-8.6,9.1-8.6,0,0,.39,0,.53,0,.21,0,14.41-.02,17-.02v-.04l3.9.02,2.29.02c4.25.04,10.36,1.73,14.77,6.33,3.61,3.76,5.43,8.7,5.27,14.31v33.04s75.33-75.47,75.33-75.47h0s2.93-2.92,2.93-2.92c1.72-1.71,3.96-2.65,6.29-2.65,3.62,0,7.01,2.29,8.43,5.7,1.4,3.36.65,7.07-1.95,9.7l-91.02,91.19v16.25c.1.55,1.29,2.22,2.19,3l.24.22c2.5,2.42,6.15,6.14,9.58,9.68.01-.03.02-.06.03-.09,1.16-3.44,3.64-5.86,5.46-7.63l.06-.06c2.91-2.98,7.05-4.69,11.37-4.69s8.11,1.57,10.99,4.32c.26.2.56.46.87.8l13.98,13.98c6.16,6.16,6.26,16.2.25,22.48-3.51,4.27-8.43,6.71-13.53,6.71-4.18,0-8.03-1.61-11.15-4.66l-4.91-4.88c.4,8.85.79,19.51-3.81,26.99l.17.41-1.75,1.88-31.67,32.17c-.24.24-1.02,1.01-2.26,1.95,1.45,1.27,2.91,2.34,3.73,2.34l.18-.02h20.39c7.91,0,14.36,6.43,14.37,14.35.03,3.83-1.45,7.46-4.17,10.2-2.72,2.75-6.34,4.26-10.2,4.26h-.18l-.28-.02c-.73-.07-1.39-.1-2.11-.1-.89,0-1.78.04-2.64.08-.97.04-1.97.09-2.97.09-4.33,0-9.64-.73-16.23-6.13l-.26-.22-.24-.25c-3.43-3.55-8.4-8.3-13.21-12.9l-.15-.14c-2.52-2.41-4.93-4.72-7.03-6.76l-17.1.02c3.98,5.96,4.21,12.35,4.2,13.76.11,19.88-.16,35.85-.37,48.68-.45,27.43-.68,41.2,3.26,51.38,3.87,10,12.54,18.16,29.8,34.43,10.82,10.19,24.28,22.88,42.03,41.06,8.71,8.72,8.9,19.3,8.89,20.47v22.66c0,4.98-4.05,9.03-9.03,9.03Zm-146.82-232.16c9.28,0,13.75,0,15.92.01,1.91-1.91,5.78-5.79,9.3-9.31h-4.64c-.59,0-1.16-.08-1.72-.24-1.12.2-2.28.31-3.46.31-.54,0-1.09-.02-1.65-.07h-11.85l-9.3,9.3c2.38,0,4.9,0,7.4,0Zm-20.38-29.94c-.03.57-.05,1.47-.04,2.88,1.3-.26,2.32-.29,2.81-.29h12.03l6.68-6.68h-17.39c-1.26,1.27-2.86,2.87-4.08,4.09Zm71.01,2.61l42.05-.05c1.07,0,2.43-.95,2.93-1.41,0,0,26.77-27.19,29.2-29.67v-.02s1.39-1.4,1.39-1.4c.78-.78,1.11-2.43,1.16-3.18v-19.04c-.19-.53-.97-1.65-1.48-2.09l-.13-.12-.33-.33c-3.69-3.84-11.32-11.81-15.09-15.46-3.96-3.16-6.53-7.41-7.66-12.62-.17-.8-.31-1.61-.42-2.42-13.95,13.96-37.25,37.28-42.65,43.17-1.07,1.14-4.41,4.5-8.89,6.92-.19,3.04-1.08,7.1-5.33,12.19l-.11.13-.19.2-9.79,9.81,15.34,15.37Zm-50.27-24.75l-2.68-2.69s-2.34,2.35-2.68,2.69h5.37Zm22.18-3.4s9.32-9.33,9.42-9.43c-5.48-2.75-9.05-6.62-12.26-10.09-.29-.32-.58-.63-.87-.94l-8.36,8.37,12.07,12.09Zm10.22-31.95v-2.42c-.4.4-.79.8-1.18,1.18.16.17.94.99,1.18,1.24Z" style="fill: #b4c6ef; opacity: .4;"/>
    </g>
    <path d="m357.87,145.2c5.78-3.31,12.23,3.14,8.92,8.92l-73.4,128.38c-2.56,4.48-6.28,8.2-10.76,10.76l-128.64,73.56c-5.7,3.26-12.06-3.09-8.8-8.8l73.45-128.57c2.6-4.55,6.36-8.31,10.91-10.91l128.32-73.34Z" style="fill: #b5cdf5;"/>
  </g>
</svg>